<svg id="noaa_logo" data-name="Layer 1" xmlns="http://www.w3.org/2000/svg" viewBox="0 0 465.44 465.49"><title>NOAA_logo</title><path id="path3758" d="M413.28,144.12c.11-.05,24.64,48.51,20.28,100.14h0c-2.36,86.71-79,185.07-193.2,188.27l-15.92-.33c-117.69-5.85-190-105.71-189.67-195.94h0c.29-16.78.22-35.53,7.29-58.72l7.22,2.16c30.16,11.4,62.7,99.52,168.48,104.54,4.6.21,13.42.42,13.4.45-6.85,6.83-45.78,22.89-63.45,27.12,4.62-1.1-.36-.11,0,0h0C210.26,338.19,252.8,287.43,308,280L325,279c-3.24-10.2-17.8-9.34-19.16-9.21-38.22,3.77-28.67-.62-29.86-.24,58.72-18.42,92.56-65.44,134.82-122.63Z" transform="translate(-1.43 0)" /><path id="path3766" d="M210.86,119.24h-6.37a2.28,2.28,0,0,0-2.29,2.29v30a2.28,2.28,0,0,0,2.29,2.28h6.37a2.28,2.28,0,0,0,2.28-2.28v-30A2.28,2.28,0,0,0,210.86,119.24Zm0,0h-6.37a2.28,2.28,0,0,0-2.29,2.29v30a2.28,2.28,0,0,0,2.29,2.28h6.37a2.28,2.28,0,0,0,2.28-2.28v-30A2.28,2.28,0,0,0,210.86,119.24Zm43.1,0h-6.35a2.3,2.3,0,0,0-2.3,2.3V132.7h10.95V121.54A2.3,2.3,0,0,0,254,119.24Zm0,0h-6.35a2.3,2.3,0,0,0-2.3,2.3V132.7h10.95V121.54A2.3,2.3,0,0,0,254,119.24Zm43.1,0h-6.34a2.31,2.31,0,0,0-2.31,2.3V132.7h10.95V121.54A2.3,2.3,0,0,0,297.06,119.24Zm0,0h-6.34a2.31,2.31,0,0,0-2.31,2.3V132.7h10.95V121.54A2.3,2.3,0,0,0,297.06,119.24Zm-86.2,0h-6.37a2.28,2.28,0,0,0-2.29,2.29v30a2.28,2.28,0,0,0,2.29,2.28h6.37a2.28,2.28,0,0,0,2.28-2.28v-30A2.28,2.28,0,0,0,210.86,119.24Zm86.2,0h-6.34a2.31,2.31,0,0,0-2.31,2.3V132.7h10.95V121.54A2.3,2.3,0,0,0,297.06,119.24Zm0,0h-6.34a2.31,2.31,0,0,0-2.31,2.3V132.7h10.95V121.54A2.3,2.3,0,0,0,297.06,119.24Zm-86.2,0h-6.37a2.28,2.28,0,0,0-2.29,2.29v30a2.28,2.28,0,0,0,2.29,2.28h6.37a2.28,2.28,0,0,0,2.28-2.28v-30A2.28,2.28,0,0,0,210.86,119.24ZM327.94,56.29c-4.1-2.18-38.56-22.89-91.47-23.72C121.76,33,71.26,117.16,71.26,117.16c25.38,12.44,51.71,49.91,52.08,50.43,28.4,39.85,68,101.61,119.26,102.79,16.42.38,27.34-9.44,39.81-21.52,45.53-44.09,51.9-125.6,110.22-137.09C392.63,111.77,371,79.18,327.94,56.29ZM181.29,162.87H170V121.54a2.3,2.3,0,0,0-2.3-2.3h-6.38a2.28,2.28,0,0,0-2.27,2.3v41.33H147.79V110.22h23.58a9.89,9.89,0,0,1,9.92,9.92Zm43.12-9.93a9.9,9.9,0,0,1-9.92,9.93H200.86a9.91,9.91,0,0,1-9.93-9.93V120.13a9.9,9.9,0,0,1,9.93-9.92h13.63a9.89,9.89,0,0,1,9.92,9.92Zm43.11,9.93H256.26V141.72H245.31v21.15H234.05V120.14a9.89,9.89,0,0,1,9.92-9.92H257.6a9.89,9.89,0,0,1,9.92,9.92Zm43.1,0H299.36V141.72H288.41v21.15H277.16V120.14a9.89,9.89,0,0,1,9.92-9.92H300.7a9.89,9.89,0,0,1,9.92,9.92Zm-13.56-43.63h-6.34a2.31,2.31,0,0,0-2.31,2.3V132.7h10.95V121.54A2.3,2.3,0,0,0,297.06,119.24Zm-43.1,0h-6.35a2.3,2.3,0,0,0-2.3,2.3V132.7h10.95V121.54A2.3,2.3,0,0,0,254,119.24Zm-43.1,0h-6.37a2.28,2.28,0,0,0-2.29,2.29v30a2.28,2.28,0,0,0,2.29,2.28h6.37a2.28,2.28,0,0,0,2.28-2.28v-30A2.28,2.28,0,0,0,210.86,119.24Z" transform="translate(-1.43 0)" style="fill:currentColor"/><path id="text4662" d="M35.08,303.55,15,309.82l-.93-3L25.72,292.9a10.51,10.51,0,0,1,.73-.83,7.34,7.34,0,0,1,.67-.62l-16.28,5.09-.81-2.6,20.08-6.28.93,3-11.8,14.21a6.88,6.88,0,0,1-.59.62c-.2.2-.43.4-.66.59L34.27,301Zm-15.37-22.1L18.36,275l-8.42,5.1Zm9.81,4.15-22.2-3.3-.65-3.09,19-12,.64,3-5.69,3.48,1.71,8.11,6.61.9Zm-4.68-25.18L6.5,262.72l.82,6.59-2.54.32-2-16,2.54-.31.82,6.59,18.34-2.29Zm-1.24-12-21,1.41L2.41,247l21-1.41Zm-11.1-9.55A9.72,9.72,0,0,0,18.83,237a7,7,0,0,0,0-10.3,9.83,9.83,0,0,0-6.32-1.87,9.74,9.74,0,0,0-6.33,1.83,7,7,0,0,0,0,10.3,9.68,9.68,0,0,0,6.32,1.89Zm0,3c-3.48,0-6.19-.91-8.14-2.68a10.58,10.58,0,0,1,0-14.64c2-1.76,4.68-2.62,8.16-2.61s6.19.89,8.14,2.66a10.58,10.58,0,0,1,0,14.64c-2,1.76-4.68,2.64-8.16,2.63Zm10.84-23.49L2.4,216.09,2.73,213,19,204.82a10.9,10.9,0,0,1,1-.47,6.87,6.87,0,0,1,.86-.3l-17-1.8.29-2.71,20.92,2.22-.32,3.08L8.28,213.19a6.81,6.81,0,0,1-.78.34,7.05,7.05,0,0,1-.85.28l17,1.8ZM18,191.93l1.3-6.42-9.75,1.35Zm7.36,7.7L6.28,187.8l.63-3.1,22.18-3.51-.61,3-6.61.94-1.64,8.12L26,196.74Zm4.4-20.5L9.54,173.28l.81-2.77L28,175.62l2.91-10.08,2.56.74Zm-1.68-28.64a9.74,9.74,0,0,0,6.55.82,7,7,0,0,0,4.11-9.44,9.73,9.73,0,0,0-5.06-4.22,9.74,9.74,0,0,0-6.54-.84A7,7,0,0,0,23,146.26a9.69,9.69,0,0,0,5,4.23Zm-1.18,2.72q-4.77-2.09-6.41-5.69a9.37,9.37,0,0,1,.24-7.9,9.33,9.33,0,0,1,5.6-5.53c2.49-.83,5.34-.55,8.53.84s5.33,3.28,6.42,5.68a9.3,9.3,0,0,1-.22,7.87A9.41,9.41,0,0,1,35.43,154c-2.5.84-5.34.56-8.53-.82Zm19.72-33.95L48,116.85a8.6,8.6,0,0,1,4,5.29,8.9,8.9,0,0,1-1.11,6.61,8.6,8.6,0,0,1-6.06,4.57q-3.88.7-8.55-1.93a11.19,11.19,0,0,1-5.53-6.16,9.17,9.17,0,0,1,1-7.64,9,9,0,0,1,4.48-4.18,7.25,7.25,0,0,1,5.68.17L40.53,116a5,5,0,0,0-3.73.08,6.35,6.35,0,0,0-2.89,2.84,6,6,0,0,0-.49,5.43A10,10,0,0,0,38.06,129a9.76,9.76,0,0,0,6.29,1.44,6.32,6.32,0,0,0,5.11-7.57,6.12,6.12,0,0,0-2.84-3.63Zm10.06-1.37-17.28-12L48,93.56l2.15,1.49-7,10,5.16,3.59,6.42-9.23,2,1.4L50.34,110l5.8,4,7.08-10.19,2.16,1.5ZM63.2,94.18l4.2-5-9.22-3.45ZM66,104.45,54.86,85l2-2.42L78.07,90l-2,2.39-6.26-2.32-5.3,6.36,3.39,5.75Zm13.54-16L64.72,73.53l2.22-2.2,17.74,3.91c.39.09.75.17,1.07.27a6,6,0,0,1,.86.32l-12-12.11,1.93-1.92L91.36,76.73l-2.2,2.19L71.11,75a8.56,8.56,0,0,1-.83-.23c-.27-.09-.55-.2-.83-.32l12,12.1ZM94.83,73.82,81,57.92l2.16-1.87L97,71.94Zm12.63-20.09,2.21-1.67a8.61,8.61,0,0,1,1.61,6.46,8.85,8.85,0,0,1-3.65,5.62,8.55,8.55,0,0,1-7.38,1.79c-2.56-.59-4.91-2.32-7.07-5.16a11.21,11.21,0,0,1-2.63-7.86,9.13,9.13,0,0,1,3.93-6.62,9,9,0,0,1,5.77-2.06,7.2,7.2,0,0,1,5.14,2.42l-2.23,1.69a5,5,0,0,0-3.45-1.41,6.29,6.29,0,0,0-3.79,1.46,5.94,5.94,0,0,0-2.6,4.78,10,10,0,0,0,2.41,6.11,9.74,9.74,0,0,0,5.2,3.83A5.87,5.87,0,0,0,106.21,62a5.8,5.8,0,0,0,2.41-3.84,6.09,6.09,0,0,0-1.16-4.46Zm15.45-11,5.7-3.25L121.19,33Zm-1,10.61-3.61-22.16,2.74-1.56L138.3,44l-2.7,1.54-5-4.37-7.21,4.1,1.16,6.57Zm18.29-10.23-8.64-19.19,2.85-1.29,15.24,9.91a10.24,10.24,0,0,1,.91.63,6.18,6.18,0,0,1,.69.59l-7-15.55,2.49-1.12,8.64,19.19-2.83,1.27-15.52-10q-.36-.24-.69-.51c-.22-.18-.45-.38-.67-.59l7,15.55ZM161,14.5l-4.66,1.57,5.1,15.21,4.66-1.56A5.73,5.73,0,0,0,170,26.25c.59-1.63.45-3.72-.4-6.26a9.16,9.16,0,0,0-3.43-5.06A5.75,5.75,0,0,0,161,14.5Zm-1.45,20.12L152.9,14.67l7.6-2.55a8.57,8.57,0,0,1,7.22.35q3,1.76,4.62,6.46,1.64,4.86.24,8.33a8.36,8.36,0,0,1-5.5,4.85Zm29.47-17.56,6.44-1.25-5-8.49Zm-4.31,9.75,3.67-22.15,3.1-.6,11.7,19.16-3,.59-3.39-5.74-8.13,1.57-1,6.6ZM210,22.54,208,4.16l-6.6.71-.28-2.54L217.2.59l.27,2.54-6.6.72,2,18.38ZM224.41,3.32l.21,17.93-2.63,0-.25-21,4.09,0,5.41,16c.15.46.27.81.34,1.06s.14.48.18.67c.07-.36.14-.67.21-.95s.15-.54.24-.79L237.42.05l4.1,0,.25,21-2.78,0-.21-17.93c-.06.3-.13.61-.22.92s-.16.62-.26.93l-5.22,16.15-2.7,0-5.48-16a8.54,8.54,0,0,1-.26-.85c-.08-.3-.16-.63-.23-1ZM249.35,11a9.71,9.71,0,0,0,1.24,6.47,6.95,6.95,0,0,0,10.25,1,9.72,9.72,0,0,0,2.46-6.11,9.79,9.79,0,0,0-1.22-6.48,6.24,6.24,0,0,0-4.89-2.76,6.3,6.3,0,0,0-5.36,1.75A9.74,9.74,0,0,0,249.35,11Zm-2.94-.29q.51-5.19,3.43-7.85a10.61,10.61,0,0,1,14.58,1.42c1.56,2.12,2.16,4.91,1.82,8.38s-1.48,6.08-3.42,7.85a9.32,9.32,0,0,1-7.56,2.21,9.39,9.39,0,0,1-7-3.64q-2.35-3.18-1.84-8.37Zm22.77,6.08,2.71.54a4.83,4.83,0,0,0,.78,3.87,5.6,5.6,0,0,0,3.61,2.1,6.39,6.39,0,0,0,4-.26,3.28,3.28,0,0,0,1.92-2.47q.48-2.37-4.47-4.63l-.45-.21q-4-1.83-5.11-3.33a4.53,4.53,0,0,1-.66-3.75,5.56,5.56,0,0,1,2.9-4,8.3,8.3,0,0,1,5.7-.61,7.93,7.93,0,0,1,5,2.83,6.36,6.36,0,0,1,1,5.22l-2.68-.52a4.51,4.51,0,0,0-.78-3.46,5.21,5.21,0,0,0-3.25-1.79,5.49,5.49,0,0,0-3.47.25,2.87,2.87,0,0,0-1.71,2.15c-.32,1.6,1.15,3.13,4.39,4.59l1.11.51L280,14a11.74,11.74,0,0,1,4.08,2.61,4.64,4.64,0,0,1,.93,2,5.85,5.85,0,0,1,0,2.32A6,6,0,0,1,282,25.16a9,9,0,0,1-6.13.61,8.58,8.58,0,0,1-5.47-3.06,7.63,7.63,0,0,1-1.17-5.89Zm24.07.73,4.61,1.35a5.69,5.69,0,0,0,3.58.22,3.34,3.34,0,0,0,1.72-2.35,3.31,3.31,0,0,0-.19-2.86,5.18,5.18,0,0,0-2.92-1.7l-4.81-1.42ZM287.3,27.7l5.92-20.19,7.43,2.18a16.88,16.88,0,0,1,2.71,1,6,6,0,0,1,1.51,1.09,4.68,4.68,0,0,1,1.31,2.54,7.08,7.08,0,0,1-.25,3.28,6.75,6.75,0,0,1-1.53,2.78,5.23,5.23,0,0,1-2.52,1.49A5.07,5.07,0,0,1,300,22a20.51,20.51,0,0,1-3.28-.76L292.54,20,290,28.51ZM305,33.05l7.8-19.55,2.65,1.06-3.2,8,10.13,4,3.21-8,2.67,1.06-7.81,19.55-2.66-1.07L321.42,29,311.28,25l-3.65,9.15Zm19.53,8.09,9.62-18.72,13.34,6.85-1.19,2.33L335.45,26l-2.87,5.59,10,5.14L341.46,39l-10-5.14-3.23,6.28,11,5.67-1.21,2.34Zm28.85-5.49-3.81,6,4.12,2.61a6.19,6.19,0,0,0,3.62,1.28,3.42,3.42,0,0,0,2.45-1.83,3.1,3.1,0,0,0,.55-2.78,6.71,6.71,0,0,0-2.8-2.69Zm-1-3.58,6.89,4.36a18.29,18.29,0,0,1,2.38,1.71,5.91,5.91,0,0,1,1.11,1.38,5,5,0,0,1,.62,2.8,6.32,6.32,0,0,1-1.05,3,5.54,5.54,0,0,1-2.17,2.07,5,5,0,0,1-2.85.44,2.87,2.87,0,0,1,.86,1.91,6.24,6.24,0,0,1-.93,2.68l-1.65,3.06a5.49,5.49,0,0,0-.64,1.56,1.4,1.4,0,0,0,.14,1l-.31.49-2.79-1.77a7.36,7.36,0,0,1,1-2.67L353,54l1.32-2.41a3.93,3.93,0,0,0,.71-2.8c-.2-.63-1.15-1.48-2.86-2.56l-3.91-2.48-4.83,7.62-2.38-1.51Zm5,28.49,12.37-17L372,45.21l-12.37,17Zm22.41,7.77,2.13,1.77a8.55,8.55,0,0,1-5.93,3,8.84,8.84,0,0,1-6.3-2.28,8.54,8.54,0,0,1-3.4-6.78q0-3.95,3.43-8.06a11.21,11.21,0,0,1,7.06-4.33A9.15,9.15,0,0,1,384.07,54a9,9,0,0,1,3.31,5.16,7.2,7.2,0,0,1-1.2,5.55L384,62.92a5,5,0,0,0,.6-3.68,6.32,6.32,0,0,0-2.28-3.36,6,6,0,0,0-5.25-1.46,10.08,10.08,0,0,0-5.41,3.73,9.68,9.68,0,0,0-2.55,5.93,5.87,5.87,0,0,0,2.24,4.9,5.8,5.8,0,0,0,4.29,1.48,6,6,0,0,0,4.07-2.13ZM394,80.88l4.45,4.82L403,77Zm-10.55,1.46,20.76-8.53,2.14,2.32-10.14,20-2.11-2.27,3.11-5.9-5.62-6.09-6.14,2.61ZM417,92.73l-3-3.9-12.75,9.74,3,3.91a5.7,5.7,0,0,0,4.53,2.54q2.61,0,5.8-2.4a9.18,9.18,0,0,0,3.67-4.88,5.71,5.71,0,0,0-1.26-5Zm-19.5,5.13,16.71-12.78,4.87,6.37a8.57,8.57,0,0,1,2,7q-.67,3.45-4.61,6.46t-7.81,2.92a8.38,8.38,0,0,1-6.37-3.64Zm29.14,9.46-15.32,9.32L410,114.4l18-11,2.13,3.49-11,12.83c-.32.37-.56.65-.74.84l-.48.49.92-.3.8-.2,16.56-3.76,2.13,3.5-18,10.95-1.44-2.37,15.31-9.32-.9.28-.93.25-16.56,3.74-1.4-2.31,11-12.88c.18-.22.38-.44.6-.67s.46-.45.73-.69Zm-4.45,28.12L441,125.88l1.3,2.55L423.53,138Zm3.46,6.61,19.36-8.26,1.23,2.88-10.21,15c-.22.33-.43.63-.64.9a7.07,7.07,0,0,1-.61.68l15.69-6.7,1.07,2.51-19.36,8.26L431,154.51l10.31-15.32a6.8,6.8,0,0,1,.52-.68c.19-.22.39-.44.61-.66l-15.69,6.7Zm7.95,19.62,19.88-6.92.94,2.7-19.88,6.92Zm8.91,4.27.75,2.65a4.81,4.81,0,0,0-3.1,2.45,5.61,5.61,0,0,0-.25,4.17,6.42,6.42,0,0,0,2,3.43,3.29,3.29,0,0,0,3.08.6q2.32-.65,2.12-6.08c0-.21,0-.38,0-.49q-.18-4.41.65-6.07a4.56,4.56,0,0,1,3.05-2.28,5.58,5.58,0,0,1,4.91.76,8.28,8.28,0,0,1,3.12,4.82,7.89,7.89,0,0,1-.26,5.76,6.34,6.34,0,0,1-4.19,3.28l-.75-2.62a4.55,4.55,0,0,0,2.74-2.26,5.22,5.22,0,0,0,.14-3.71,5.59,5.59,0,0,0-1.79-3,2.89,2.89,0,0,0-2.7-.56q-2.35.66-2.11,6c0,.53,0,.94,0,1.22a2.37,2.37,0,0,1,0,.31,11.79,11.79,0,0,1-.48,4.82,4.58,4.58,0,0,1-1.32,1.7,5.58,5.58,0,0,1-2.08,1,6,6,0,0,1-5.25-.79,9,9,0,0,1-3.32-5.2,8.58,8.58,0,0,1,.26-6.26,7.59,7.59,0,0,1,4.73-3.7Zm-.69,25.64L460,188.14l-1.23-6.53,2.51-.47,3,15.87-2.52.48L460.56,191l-18.17,3.44Zm20.87,12.77-7.09.72.49,4.86a6.16,6.16,0,0,0,1.24,3.63,3.41,3.41,0,0,0,2.95.8,3.11,3.11,0,0,0,2.52-1.29,6.7,6.7,0,0,0,.39-3.86Zm2.17-3,.83,8.11a17.47,17.47,0,0,1,.13,2.93,5.55,5.55,0,0,1-.4,1.73,4.86,4.86,0,0,1-1.81,2.21,6.43,6.43,0,0,1-3,1,5.41,5.41,0,0,1-3-.43,4.87,4.87,0,0,1-2.1-2,2.9,2.9,0,0,1-1,1.85,6,6,0,0,1-2.67.93l-3.43.6a5.41,5.41,0,0,0-1.63.46,1.45,1.45,0,0,0-.71.74l-.58.05-.33-3.28a7.28,7.28,0,0,1,2.74-.84h.08l2.72-.45a3.9,3.9,0,0,0,2.63-1.17c.37-.55.45-1.82.24-3.83l-.47-4.61-9,.92-.29-2.81Zm-10.39,25.12.08,6.56,9.25-3.37Zm-8.82-6L466.83,228l0,3.16-20.94,8.1,0-3.1,6.26-2.3-.11-8.29-6.31-2.16Zm-.29,25.61,18.45,1.29.46-6.63,2.55.18L465.73,257l-2.55-.18.47-6.63-18.45-1.29Zm-1.1,12,20.87,2.67-.36,2.83L443.94,261Zm9.05,11.53a9.73,9.73,0,0,0-6.57.58,7,7,0,0,0-2,10.1,11.75,11.75,0,0,0,12.4,2.5,7,7,0,0,0,2-10.1,9.63,9.63,0,0,0-5.83-3.08Zm.58-2.9q5.11,1,7.47,4.21a10.6,10.6,0,0,1-2.88,14.35c-2.27,1.34-5.1,1.67-8.52,1s-5.9-2.08-7.47-4.19a10.59,10.59,0,0,1,2.89-14.36c2.27-1.35,5.1-1.68,8.51-1Zm-15.2,20.93L458.81,294l-.93,3-17.52,4.82a11,11,0,0,1-1.07.26,5.3,5.3,0,0,1-.91.12l16.28,5.09-.81,2.61-20.09-6.28.93-3,17.79-5a5.84,5.84,0,0,1,.83-.18c.29,0,.58-.08.89-.11l-16.28-5.09Z" transform="translate(-1.43 0)" style="fill:currentColor"/><path id="text4682" d="M36.79,340.1,48,333.43l1.45,2.45-11.25,6.69a6.28,6.28,0,0,0-3.09,3.35,5.27,5.27,0,0,0,.86,4.21,5.28,5.28,0,0,0,3.3,2.75,6.19,6.19,0,0,0,4.42-1.08L55,345.12l1.47,2.47L45.2,354.26q-3.63,2.16-6.61,1.39t-5.14-4.4c-1.34-2.25-1.74-4.31-1.18-6.17s2.06-3.52,4.52-5Zm4.66,22.7,2.63-1.8,1.66,2.41-2.63,1.81Zm9.66,2,1.7,2.17a4.84,4.84,0,0,0-1.94,3.44,5.63,5.63,0,0,0,1.36,3.95,6.44,6.44,0,0,0,3.18,2.41,3.3,3.3,0,0,0,3.07-.62q1.91-1.49-.35-6.42l-.21-.46q-1.83-4-1.7-5.86a4.61,4.61,0,0,1,2-3.27A5.6,5.6,0,0,1,63,359a8.3,8.3,0,0,1,4.71,3.26,8,8,0,0,1,2,5.43A6.4,6.4,0,0,1,67,372.29l-1.69-2.14A4.58,4.58,0,0,0,67,367a5.22,5.22,0,0,0-1.29-3.48A5.49,5.49,0,0,0,63,361.46a2.85,2.85,0,0,0-2.7.51q-1.94,1.5.32,6.34c.22.48.39.85.5,1.11,0,.05.07.15.13.28a11.83,11.83,0,0,1,1.39,4.64,4.68,4.68,0,0,1-.58,2.09,5.52,5.52,0,0,1-1.52,1.74,5.94,5.94,0,0,1-5.16,1.26,9,9,0,0,1-5-3.54A8.55,8.55,0,0,1,48.15,370a7.57,7.57,0,0,1,3-5.22Zm7.67,20.55,2.39-2.1,1.94,2.19-2.39,2.11Zm30.05,4.29-3.61-3.34L74.33,398.06l3.61,3.34a5.66,5.66,0,0,0,4.89,1.73q2.58-.4,5.3-3.35a9.23,9.23,0,0,0,2.79-5.44,5.69,5.69,0,0,0-2.09-4.72ZM70.48,398l14.29-15.45L90.66,388a8.57,8.57,0,0,1,3.16,6.5c0,2.35-1.19,4.73-3.44,7.16s-4.72,3.91-7.19,4.21a8.39,8.39,0,0,1-6.91-2.5Zm15.94,14.36,12.89-16.63,11.86,9.18-1.6,2.07-9.63-7.46-3.85,5,8.89,6.89-1.5,1.94-8.89-6.88L90.27,412l9.81,7.6-1.61,2.08Zm24.13,3.72,4,2.62a5.65,5.65,0,0,0,3.36,1.23,4.23,4.23,0,0,0,3-4.55,5.25,5.25,0,0,0-2.32-2.47l-4.2-2.73Zm-8.61,8,11.46-17.65,6.5,4.22a17.1,17.1,0,0,1,2.3,1.72,5.71,5.71,0,0,1,1.14,1.48,4.64,4.64,0,0,1,.53,2.81,7.2,7.2,0,0,1-1.18,3.07,6.66,6.66,0,0,1-2.27,2.22,5.27,5.27,0,0,1-2.84.71,5.47,5.47,0,0,1-1.85-.42,21.63,21.63,0,0,1-2.92-1.68l-3.64-2.36-4.84,7.44Zm23.67,4.37,5.78,3.1,1.52-9.72Zm-9.5,4.82L133,418.46l2.78,1.5-3.06,22.25L130,440.74l1-6.59-7.29-3.93-5,4.48Zm29.18-5.83L142.47,434,147,436a6.24,6.24,0,0,0,3.77.7,3.43,3.43,0,0,0,2.14-2.19,3.11,3.11,0,0,0,.1-2.84,6.64,6.64,0,0,0-3.18-2.21Zm-1.59-3.38,7.49,3.24a17.73,17.73,0,0,1,2.62,1.31,6,6,0,0,1,1.31,1.19,4.93,4.93,0,0,1,1,2.67,6.46,6.46,0,0,1-.57,3.08,5.53,5.53,0,0,1-1.83,2.38,4.89,4.89,0,0,1-2.74.88,2.92,2.92,0,0,1,1.15,1.75,6.27,6.27,0,0,1-.5,2.79l-1.16,3.28a5.79,5.79,0,0,0-.39,1.65,1.45,1.45,0,0,0,.3,1l-.23.53-3-1.31a7.32,7.32,0,0,1,.61-2.8l0-.08.93-2.58a4,4,0,0,0,.26-2.88c-.29-.58-1.37-1.28-3.22-2.08l-4.25-1.84L138,444.53l-2.59-1.12Zm14.7,28.57,5.93-17.51L158,433l.82-2.42,15.3,5.18-.82,2.42-6.29-2.13-5.93,17.51Zm18.89-12.78-4.17,17.44-2.56-.61,4.89-20.47,4,.95,1.33,16.87c0,.48.06.85.08,1.11s0,.5,0,.69c.16-.33.3-.61.44-.86s.28-.49.42-.71l9-14.41,4,1-4.89,20.46-2.69-.64,4.16-17.44c-.13.28-.28.56-.43.84l-.48.84-9,14.38-2.62-.62-1.4-16.88a8.3,8.3,0,0,1-.06-.89c0-.32,0-.65,0-1ZM195,462.15l2.9-20.84,14.86,2.07-.36,2.59-12.06-1.68-.87,6.22,11.14,1.56-.34,2.43L199.16,453l-1,7,12.3,1.71-.37,2.61Zm19.26,2.5,1.06-21,3.12.15,9,15.76c.21.35.38.67.53,1a7.51,7.51,0,0,1,.34.85l.86-17,2.72.14-1.05,21-3.1-.16-9.25-16c-.14-.25-.27-.5-.39-.77s-.22-.54-.32-.83l-.86,17Zm26.51.64-.61-18.48-6.64.22-.08-2.56,16.15-.53.08,2.55-6.64.22.61,18.48Zm21.9-12.09a9.69,9.69,0,0,0,2.84,5.95,7,7,0,0,0,10.17-1.62,11.76,11.76,0,0,0-2-12.5,7,7,0,0,0-10.17,1.62,9.69,9.69,0,0,0-.85,6.55Zm-2.92.46q-.82-5.15,1.34-8.46a10.59,10.59,0,0,1,14.46-2.31c2,1.65,3.33,4.19,3.88,7.64s.11,6.25-1.32,8.46a10.59,10.59,0,0,1-14.46,2.3q-3.07-2.48-3.9-7.63Zm25.6,6.2-5.15-20.41,13.7-3.45.65,2.56-10.93,2.75,1.54,6.13,9.55-2.41.63,2.49-9.55,2.41,2.33,9.23ZM321.87,440l2.59-1a8.59,8.59,0,0,1-.23,6.65,8.87,8.87,0,0,1-5,4.41,8.56,8.56,0,0,1-7.59-.31q-3.45-1.9-5.39-6.9a11.26,11.26,0,0,1-.38-8.28,9.19,9.19,0,0,1,5.6-5.29,9,9,0,0,1,6.12-.4,7.26,7.26,0,0,1,4.28,3.74l-2.62,1a5,5,0,0,0-2.93-2.3,6.31,6.31,0,0,0-4,.37,6,6,0,0,0-3.82,3.88,10,10,0,0,0,.65,6.54,9.69,9.69,0,0,0,3.95,5.1,6.32,6.32,0,0,0,8.75-2.62,6.07,6.07,0,0,0,.1-4.6Zm6.29-5.71a9.7,9.7,0,0,0,4.51,4.8,7,7,0,0,0,9.2-4.64,11.74,11.74,0,0,0-5.7-11.29,7,7,0,0,0-9.2,4.64,9.69,9.69,0,0,0,1.19,6.49Zm-2.64,1.33c-1.57-3.1-2-5.93-1.31-8.47a10.61,10.61,0,0,1,13.07-6.61q3.68,1.44,6,6.1t1.32,8.46a10.58,10.58,0,0,1-13.07,6.6q-3.69-1.43-6-6.08Zm18.85-18.3,9.7,15.08-2.21,1.43-11.39-17.7,3.44-2.21L357,424.65c.38.3.66.54.86.71s.36.33.5.47c-.13-.34-.23-.64-.32-.92s-.16-.53-.22-.79l-4.17-16.46,3.45-2.22,11.39,17.7-2.34,1.5-9.7-15.08c.11.29.21.59.31.9l.27.92,4.15,16.46-2.27,1.46-13.15-10.67a8.75,8.75,0,0,1-.68-.58c-.23-.22-.47-.46-.71-.72Zm19.19-12.9,11.26,14-2,1.65-13.22-16.38,3.18-2.57,14.17,9.26c.41.26.72.47.93.62s.4.29.55.41c-.17-.32-.3-.61-.42-.88s-.21-.51-.3-.76l-5.91-15.92,3.19-2.58,13.22,16.38L386,409.36l-11.26-13.95c.14.28.27.56.4.86s.25.59.37.88l5.89,15.92-2.11,1.7-14.21-9.2c-.24-.15-.49-.32-.74-.51l-.79-.63ZM392,404,377.32,389l10.73-10.49,1.83,1.87-8.71,8.51,4.4,4.5,8-7.86,1.72,1.75-8,7.86,4.93,5,8.88-8.68,1.84,1.88Zm1.55-28,5.39,4.66,3.19-3.69a6.23,6.23,0,0,0,1.8-3.39,3.43,3.43,0,0,0-1.45-2.7,3.12,3.12,0,0,0-2.67-.95,6.77,6.77,0,0,0-3.07,2.38Zm-3.71.51,5.34-6.18a17.36,17.36,0,0,1,2-2.1,5.7,5.7,0,0,1,1.53-.89,4.89,4.89,0,0,1,2.85-.21,6.43,6.43,0,0,1,2.77,1.48,5.49,5.49,0,0,1,1.72,2.45,4.86,4.86,0,0,1,0,2.88,2.91,2.91,0,0,1,2-.57,6.21,6.21,0,0,1,2.51,1.31l2.78,2.09a5.44,5.44,0,0,0,1.46.86,1.43,1.43,0,0,0,1,0l.44.38-2.15,2.5a7.32,7.32,0,0,1-2.5-1.42l-.06-.05-2.19-1.67a3.94,3.94,0,0,0-2.67-1.11c-.64.11-1.63.93-2.95,2.46l-3,3.5,6.82,5.89-1.85,2.14Zm31.22-18.18,1.62-2.25a8.61,8.61,0,0,1,3.44,5.7,8.82,8.82,0,0,1-1.82,6.44,8.56,8.56,0,0,1-6.53,3.89q-3.93.28-8.28-2.84a11.25,11.25,0,0,1-4.83-6.73,9.14,9.14,0,0,1,1.8-7.49,9,9,0,0,1,4.91-3.67,7.18,7.18,0,0,1,5.62.79l-1.63,2.27a5,5,0,0,0-3.72-.32,6.28,6.28,0,0,0-3.18,2.51,5.93,5.93,0,0,0-1.08,5.34,10,10,0,0,0,4.11,5.13,9.77,9.77,0,0,0,6.1,2.12,5.91,5.91,0,0,0,4.73-2.6,5.82,5.82,0,0,0,1.16-4.37,6.05,6.05,0,0,0-2.42-3.92Zm10.15-1.21-18.1-10.73,7.65-12.91,2.24,1.34-6.2,10.47,5.41,3.2,5.73-9.67,2.11,1.25-5.73,9.68,6.07,3.6,6.33-10.69L439,344Z" transform="translate(-1.43 0)" style="fill:currentColor"/></svg>
